<?xml version="1.0" encoding="UTF-8"?>
<svg version="1.1" viewBox="0 0 2048 749" width="295" height="108" xmlns="http://www.w3.org/2000/svg">
<path transform="translate(903,13)" d="m0 0h37l24 3 24 6 19 7 16 8 16 9 14 10 13 11 13 12 9 10 10 13 10 15 13 25 9 23 7 25 3 15 1 11v15l6-27 7-30 7-20 11-24 10-17 10-14 8-10 9-10 7-8 10-9 17-13 18-11 16-8 15-6 20-6 16-3 21-2h35l24 3 21 5 20 7 21 10 18 11 13 10 14 12 14 14 11 14 9 13 10 17 9 19 7 19 6 22 4 25 2 26v11l-1 19-4 28-5 21-7 20-13 27-14 22-11 14-11 12-16 16-19 14-18 10-19 9-25 8-23 5-16 2-15 1h-13l-23-2-25-5-21-7-25-11-14-8-14-10-11-9-13-12-9-10-13-17-10-15-14-27-8-21-7-24-8-33-1-7-1 23-3 19-7 24-8 20-8 16-8 14-12 17-8 10-11 12-12 12-13 10-14 9-16 9-24 10-20 6-25 5-25 2h-15l-23-2-20-4-16-5-16-6-23-11-16-10-16-13-12-11-8-8-11-14-11-15-11-19-9-19-9-25-6-25-3-19-1-12v-26l2-25 5-26 8-26 12-27 10-17 12-17 11-13 12-13 12-11 13-10 16-10 21-11 25-9 17-4zm0 22-26 4-21 6-19 8-17 9-17 12-13 11-14 14-11 14-12 18-9 17-10 24-7 24-4 24-1 11v31l3 23 5 22 8 24 13 27 12 18 9 11 9 10 13 13 17 13 18 11 21 10 21 7 21 4 24 2 27-1 19-3 22-6 19-8 21-11 14-10 10-8 13-12 12-13 11-15 12-20 9-20 7-21 5-22 3-29v-31l-3-23-5-22-7-21-8-18-11-19-12-17-18-20-8-7-13-10-19-12-21-10-21-7-19-4-17-2zm443 0-25 4-21 6-21 9-16 9-14 10-10 8-13 12-7 8-11 14-11 17-10 19-8 20-6 19-4 20-2 16v41l5 30 6 21 5 14 12 25 9 14 10 13 12 14 8 8 11 9 12 9 18 11 17 8 17 6 21 5 16 2h41l19-3 22-6 19-8 16-8 16-10 11-9 12-11 13-13 10-13 9-14 7-12 8-18 8-24 5-23 2-18v-42l-3-23-4-17-8-24-12-25-11-18-10-13-12-13-8-8-14-11-15-10-18-10-21-8-18-5-18-3-10-1z" fill="#01FDD5"/>
<path transform="translate(1664,18)" d="m0 0 16 1 13 4 11 6 9 7 10 13 16 25 17 26 21 32 9 14 17 26 15 23 9 14h3l11-16 16-24 19-28 64-96 9-11 9-8 10-5 7-2 8-1h11l13 2 14 7 10 9 8 10 5 11 3 11 1 7v341l-3 16-4 10-8 11-8 8-12 7-11 3-9 1h-9l-13-2-13-5-11-8-7-8-7-14-3-13-1-15v-151l-4 4-7 11-13 20-14 22-12 18-11 13-8 8-10 6-19 5h-15l-13-4-12-7-11-11-9-13-13-21-14-22-11-17-8-11-2-2-1 158-1 14-3 12-7 12-10 10-10 6-13 4-8 1h-10l-15-3-11-6-8-7-6-8-6-12-3-11-1-10v-343l3-14 7-14 11-12 9-7 12-5zm3 22-10 2-10 5-7 7-4 6-3 10-1 20v327l2 11 5 10 8 7 8 4 4 1h14l10-4 6-4 6-7 3-7 2-13 1-238 5 5 9 16 13 20 14 22 13 21 14 22 16 26 8 12 9 10 7 6 11 4h13l14-7 10-10 14-21 19-29 16-25 11-17 14-21 11-17 7-11h2v235l2 10 4 8 5 6 8 5 9 3h18l11-4 10-9 4-8 2-9 1-21v-324l-2-11-4-8-8-9-10-5-10-2-11 1-9 4-8 7-11 15-11 17-16 24-21 31-36 54-21 31-11 17-5 7v2l-5-3-8-11-12-19-10-15-14-22-17-26-11-17-13-20-11-17-16-25-10-15-9-11-10-6-6-2z" fill="#01FDD5"/>
<path transform="translate(65,19)" d="m0 0h159l23 2 23 5 18 8 15 9 14 12 9 12 9 17 6 18 4 22 1 12v21l-2 14-5 16-8 16-7 10-4 5 1 5 10 10 5 4 9 11 7 11 7 15 6 21 3 19v23l-3 24-5 22-5 13-8 15-9 12-11 12-15 11-19 10-30 10-21 4-11 1-23 1h-139l-20-2-11-4-11-8-7-7-7-11-4-12-2-17v-339l2-12 8-16 9-10 8-7 10-5 8-2zm-5 22-10 2-10 7-7 10-3 9-1 8v342l3 11 4 7 8 8 9 4 4 1h171l18-2 18-4 15-5 19-10 12-9 12-12 9-14 6-13 6-21 3-20v-26l-3-19-5-15-8-15-10-13-7-7-14-10-10-6-9-4h-2l5-5 13-10 8-7 9-13 6-13 4-16 1-8v-21l-3-21-5-16-9-17-9-11-10-8-10-6-15-6-16-4-22-2z" fill="#01FDD5"/>
<path transform="translate(441,19)" d="m0 0h18l12 3 13 7 11 9 7 10 5 11 1 5 1 296h136l14 3 14 7 10 8 7 10 5 12 2 9v15l-4 16-9 13-9 9-10 6-10 3-11 1h-198l-13-2-11-4-8-5-10-9-7-11-4-11-2-11-1-18v-326l3-16 7-14 11-12 9-7 11-5zm2 22-10 3-11 8-6 10-2 5-1 8v345l3 12 9 10 8 6 6 2 12 1h65l130-1 10-3 8-6 7-8 3-9v-16l-4-11-8-9-7-4-9-2-159-1-1-99v-156l-1-61-5-10-8-8-8-4-7-2z" fill="#01FDD5"/>
<path transform="translate(1036,504)" d="m0 0h31l13 2 8 4 7 7 10 15 10 18 26 48 12 21 14 26 6 8v-93l1-33h-20l-1 10-1 32-1 7-8 4-10-1-2-2-1-5v-59l2-7 2-1 10-1h41l9 2 2 10v191l-5 5-8 2-6-4-8-13-10-18-14-26-13-23-9-17-9-16-26-48-9-14-5-5-3-2-5-1h-20l-1 199 19 1 1-132 4-7 7-4 5 1 7 8 9 16 28 54 17 33 10 18 6 8 9 3 23 2 5 5v11l-3 6h-36l-11-8-9-9-10-17-13-25-10-19-11-20-4-4 1 21-1 73-3 8h-59l-3-7-1-5-1-63v-79l1-84 2-4 5-2zm92 93m-50 1-1 2 2 9 3 1-1-11zm51 1m1 2 1 2zm1 2 1 2zm1 2 1 3v-3zm2 3 2 6 7 12 1-3-9-15zm10 18 1 2zm1 2 2 5 1-2zm3 5 1 2zm1 2 1 2zm1 2m-28 45m2 4m1 2m1 2m57 1m-56 1m1 1 1 2zm1 2m1 2m1 2m1 2m1 1 1 2zm1 2 1 2zm1 2m1 1 1 2z" fill="#F168D6"/>
<path transform="translate(859,504)" d="m0 0h117l5 3 2 6v44l-2 5-4 3-3 1h-57v30h45l4 4 1 4v43l-2 5-7 2-70 1-13 1v70h84l1-16h-60l-5-2-1-6v-30l1-9 4-4h15l2 3 1 25h58l4 2 3 6 1 6v37l-4 10-1 1h-123l-4-13v-76l1-9 7-9v-6l-4-2-4-4v-92l1-27 2-5zm16 22-1 3v103h58l12-1 1-6-1-7-3-1-39-1-6-1-1-7v-38l1-23 4-2 59-2 1-9-1-7-1-1z" fill="#F168D6"/>
<path transform="translate(475,504)" d="m0 0h119l5 3 1 3 1 11v35l-2 7-7 3h-57l1 29 45 1 3 4 1 3 1 16v16l-1 13-3 5-6 1h-55l-23 2-4 1-1 18v50l1 1h83l1-16h-59l-5-2-1-1-1-7v-28l1-9 2-3 3-1h14l2 2 1 26h59l5 5 2 12v35l-5 10h-123l-3-11v-87l7-9v-5l-7-5-1-3v-59l1-60 3-5zm18 22-1 9v97h58l13-1v-11l-2-3-42-1-4-1-2-9v-28l1-31 2-2 51-1 10-1 1-2v-14l-1-1z" fill="#F168D6"/>
<path transform="translate(1482,504)" d="m0 0 18 1 14 4 11 7 9 8 7 10 8 16 4 11v6l-6 7-17 9-17 7-7 1-5-3-8-16-5-5-3-1-4 1-2 9 4 8 6 7 1 6-3 5-4 2h-8l-8-4-5-4-6-10v-17l4-9 5-8 8-7 8-3h7l10 3 10 7 8 9 4 1 5-2-1-9-6-10-9-7-12-5-4-1h-18l-12 4-9 6-8 9-5 10-2 7v13l5 12 5 6 8 6 14 6 15 5 26 7 13 6 11 7 7 7 8 15 4 14 1 7v10l-2 14-5 14-7 11-10 10-13 8-13 5-8 2h-34l-16-7-11-8-7-7-9-14-7-14-4-12v-11l8-6 18-8 17-6h8l4 5 7 20 5 5h8l4-2 1-2v-7l-4-8-8-7-4-7 1-5 4-5 4-2h7l8 4 7 6 6 10 2 5 1 11-2 12-6 10-8 7-11 4h-12l-9-3-10-9-6-9-5-5-6 2-1 2 1 9 6 11 10 10 12 6 14 2 14-1 13-4 9-6 3-1 2-4 6-9 3-8 1-5v-15l-4-13-6-9-8-6-13-6-17-4-16-3-16-6-12-7-11-10-8-12-5-15v-23l5-15 8-13 9-10 12-9 12-5 9-2z" fill="#F168D6"/>
<path transform="translate(650,504)" d="m0 0h50l5 5 6 19 14 55 2 6 2-3 5-19 10-40 5-15 4-6 8-2h31l15 2 4 3v9l-5 21-13 51-10 37-9 35-5 15-5 9-5 5-5 2h-13l-8-4-6-10-7-24-9-35-12-45-12-44-2-4h-18l8 36 15 63 12 51 10 42 2 6 24 1 11 2 4 6v7l-5 8h-51l-7-21-17-71-21-89-11-48v-10l5-5zm122 22-4 2-5 17-8 32-7 25-3 5-12 4 1 9 11 41 3 4 6-18 19-72 11-40 1-8-1-1zm-48 94 1 10 6 20 1-4-6-21-1-5zm8 30 1 7 1-4zm2 8 1 2zm1 3 1 2z" fill="#F168D6"/>
<path transform="translate(906,105)" d="m0 0h29l14 2 18 6 15 8 16 12 14 14 12 18 10 21 6 18 4 26v33l-4 24-5 16-5 12-8 15-8 11-9 10-9 9-14 10-15 8-21 6-12 2h-28l-19-4-20-8-15-10-12-11-12-13-9-14-8-16-6-15-5-22-2-16v-23l2-18 5-21 8-20 8-14 10-14 13-14 10-8 13-8 15-7 17-4zm5 22-20 4-14 6-13 9-10 9-11 14-9 15-7 17-5 21-2 16v16l3 22 6 21 8 17 9 13 11 12 12 10 17 9 16 4 7 1h25l15-3 11-4 11-6 11-9 6-5 9-11 8-11 9-19 5-18 2-14v-34l-3-19-7-21-10-19-10-13-9-9-10-7-16-8-13-4-12-2z" fill="#01FDD5"/>
<path transform="translate(1351,105)" d="m0 0h29l17 3 14 5 17 9 13 10 11 10 12 16 8 14 7 16 5 15 3 16 2 23v10l-2 21-4 19-6 18-10 19-10 14-11 12-11 9-10 7-14 7-16 5-16 3h-29l-18-4-16-6-14-8-9-7-12-11-10-12-10-16-8-17-6-19-4-23-1-11v-12l2-21 5-23 8-20 9-16 9-12 9-10 9-9 15-10 16-8 19-5zm4 22-16 3-13 5-11 6-10 8-11 11-10 14-8 15-6 17-5 25-1 17 2 21 5 21 6 15 8 15 8 10 7 8 11 9 11 7 12 5 12 3 8 1h24l16-3 13-5 11-7 13-11 7-7 10-14 9-17 6-20 3-21v-23l-2-17-5-19-7-17-8-14-8-10-5-6-10-8-14-8-12-5-12-3-8-1z" fill="#01FDD5"/>
<path transform="translate(1252,504)" d="m0 0h112l4 4 1 5v47l-3 6-4 2-8 1h-10l-5-2-2-4-1-9 3-5 7-3 1-19-87-1-1 19h51l12 2 6 7 3 2 2 5 1 6 1 43v122l-1 10-3 7h-57l-3-7-1-9v-126l1-28 2-4 4-2 13 1 2 2 1 37v113h18v-157l-62-1-10-2-2-5-1-8v-26l1-17 3-4z" fill="#F168D6"/>
<path transform="translate(107,270)" d="m0 0h111l18 3 11 4 9 7 6 7 5 10 3 12v25l-3 12-7 13-5 6-10 7-11 4-14 2-26 1h-84l-4-2-1-2v-98l1-10zm21 22-1 7v60l1 2h86l13-2 12-6 5-7 3-11 1-9v-9l-3-12-5-7-8-4-12-2z" fill="#01FCD5"/>
<path transform="translate(148,109)" d="m0 0h37l27 1 12 3 11 7 6 7 5 11 2 8v21l-4 12-6 8-8 7-8 4-11 2-15 1h-86l-5-2v-87l1-2zm-20 22-1 16v32h80l8-2 7-6 3-9 1-8-2-12-4-6-7-4-8-1z" fill="#01FDD5"/>
</svg>
