<?xml version="1.0" encoding="UTF-8"?>
<svg version="1.1" viewBox="0 0 1200 1000" width="300" height="250" xmlns="http://www.w3.org/2000/svg">
<path transform="translate(760,27)" d="m0 0h382l22 1 10 3 9 6 8 9 5 11 1 5v158l-3 10-6 9-8 8-8 4-8 2-12 1-194 1v106l9-1h125l17 1 12 5 10 9 5 6 4 8 2 13v127l-1 18-4 11-7 9-9 7-10 4-5 1-30 1-246 1-12 5-10 9-6 12-1 4-1 233h315v-60h-200l-12-2-12-6-10-10-6-12-1-5v-119l4-11 8-11 9-7 8-4 4-1h17l10 3 11 8 8 11 4 11 1 29v42h200l12 2 10 5 9 9 5 8 3 11v158l-3 10-8 11-9 7-11 4-6 1h-409l-9-3-9-5-7-7-6-10-2-7-1-10v-139l2-56 1-14h-2l-1 11-5 28-5 25-6 20-9 22-10 20-15 23-10 13-9 10-18 18-13 10-13 9-19 11-15 8-19 8-24 8-23 6-35 6-30 3-14 1-29 1h-252l-40-1-17-3-15-5-17-9-11-9-8-7-11-14-7-11-6-12-5-16-3-21v-680l2-20 4-15 7-16 6-10 11-14 8-8 17-12 16-8 16-5 14-2h323l31 2 28 4 31 7 22 8 20 9 18 11 14 10 12 11 16 16 10 13 10 15 11 21 8 21 6 20 5 25 3 29 1 33-2 27-3 18-5 19-7 19-9 19-12 19-11 13-7 8-1 3 13 10 12 11 16 16 11 14 10 14 9 15 8 16 8 20 7 26 5 26 3 18v-19l2-19 5-16 8-16 10-13 9-10 11-10 13-9 10-5 16-6 14-3 12-1h230v-53h-148l-12-3-9-6-6-5-6-9-4-12v-204l4-11 8-11 10-7 10-4 6-1h203v-60h-315v366l-2 10-4 9-7 8-7 6-6 3-10 2h-9l-11-2-9-5-9-8-6-10-2-6-1-9v-406l2-12 6-12 9-10 12-6zm-638 54-20 2-13 4-12 7-10 9-7 8-6 11-4 11-2 12v683l3 16 8 16 10 13 12 9 15 7 7 2 11 1h297l27-1 31-4 31-6 25-7 25-10 21-11 18-12 13-10 20-20 12-16 12-20 8-16 6-16 7-27 4-25 2-28v-34l-2-23-5-26-8-24-8-16-8-14-9-12-8-10-11-12-12-11-18-13-15-9-15-8-18-8 3-3 19-11 13-10 10-9 12-12 11-15 10-18 6-14 5-18 3-13 2-20v-29l-2-23-4-24-5-19-7-19-8-16-8-13-9-12-20-20-10-7-18-11-15-7-24-8-26-6-25-3-15-1-30-1z" fill="#E35FCA"/>
<path transform="translate(105,38)" d="m0 0h323l31 2 28 4 31 7 22 8 20 9 18 11 14 10 12 11 16 16 10 13 10 15 11 21 8 21 6 20 5 25 3 29 1 33-2 27-3 18-5 19-7 19-9 19-12 19-11 13-7 8-1 3 13 10 12 11 16 16 11 14 10 14 9 15 8 16 8 20 7 26 5 26 3 21-1 53-6 34-5 25-6 20-9 22-10 20-15 23-10 13-9 10-18 18-13 10-13 9-19 11-15 8-19 8-24 8-23 6-35 6-30 3-14 1-29 1h-252l-40-1-17-3-15-5-17-9-11-9-8-7-11-14-7-11-6-12-5-16-3-21v-680l2-20 4-15 7-16 6-10 11-14 8-8 17-12 16-8 16-5zm17 43-20 2-13 4-12 7-10 9-7 8-6 11-4 11-2 12v683l3 16 8 16 10 13 12 9 15 7 7 2 11 1h297l27-1 31-4 31-6 25-7 25-10 21-11 18-12 13-10 20-20 12-16 12-20 8-16 6-16 7-27 4-25 2-28v-34l-2-23-5-26-8-24-8-16-8-14-9-12-8-10-11-12-12-11-18-13-15-9-15-8-18-8 3-3 19-11 13-10 10-9 12-12 11-15 10-18 6-14 5-18 3-13 2-20v-29l-2-23-4-24-5-19-7-19-8-16-8-13-9-12-20-20-10-7-18-11-15-7-24-8-26-6-25-3-15-1-30-1z" fill="#00FCCE"/>
<path transform="translate(809,53)" d="m0 0 23 1h323l11 2 4 3 1 5v139l-1 17-3 5-21 2h-14l-6 1-5-1-43 1-11-1-9 1-4-1h-41l-21 1h-60v29l-1 23v89l1 17 17 1h155l8 4 3 5v128l-1 20-2 5-3 2h-8l-3 1-24 1h-210l-34 1-18 5-14 8-5 5-4 2v3h-2l-2 5-1 2h-2l-1 4-5 12-2 22-1 50v20l1 27v31l-1 4v97l1 18 11 1h357l-1-100v-13l-16 1-54-1h-158l-6-2v-2l-4-1-1-3-1-25-1-55v-35l3-7 13-4 8 1 5 4 2 4 1 20-1 73 3 1h78l5 1 2-1h13l5 1 12-1 8 1 30-1 35 1 19 1 5-1 18 1 6 3 1 5v128l-1 29-2 4-2 1-9 1-30 1h-357l-18-2-5-2-2-6-1-27v-58l-1-44v-147l2-19 3-10 3-7 1-4h2l2-7 3-2 2-4h2l2-4 16-16 14-8 12-5 12-3 11-1h256v-25l-1-70v-12l-16 1-39-1h-120l-4-2v-2l-3-1-1-10-1-42v-80l-1-8v-65l2-7 8-2 16-1h211l5-1-1-81v-30h-91l-6-1h-32l-14 1-6-1-16 1-2-1-24 1h-28l-4-1-4 1h-128l-4 1-7-1-1 40-1 23v11l1 20-1 18v281l-3 7-6 3h-9l-8-4-2-4v-34l-1-36v-86l-1-8 1-20v-184l-1-13v-27l1-10h2l1-4 4-2 9-1 1-1z" fill="#F784E2"/>
<path transform="translate(199,535)" d="m0 0h213l28 3 22 5 16 7 11 7 12 11 8 11 6 12 5 17 3 23v28l-3 20-4 14-7 16-8 12-10 11-13 9-16 8-18 6-18 3-26 1h-190l-11-1-1-1v-221zm52 43-9 1v136l4 1 171-1 17-3 15-5 11-7 8-8 7-14 4-20v-30l-3-17-6-12-8-8-12-6-12-3-25-3-62-1z" fill="#00FDCE"/>
<path transform="translate(199,218)" d="m0 0h200l15 2 15 4 12 6 14 10 7 7 7 11 5 11 4 15 2 15v24l-3 17-4 11-7 13-11 12-15 10-17 8-18 4h-206l-1-1v-178zm44 43-1 1v93h156l12-3 10-5 10-9 4-8 2-9v-19l-2-15-6-12-8-7-13-5-4-1-14-1z" fill="#00FDCE"/>
</svg>
